<svg width="512" height="512" viewBox="0 0 512 512" fill="none" xmlns="http://www.w3.org/2000/svg">
    <path d="M26.058 37.067h-6.772V24.802c0-3.31-2.695-5.998-6.014-5.998-3.318 0-6.013 2.688-6.013 5.998v12.265H.5V24.802c0-7.025 5.73-12.752 12.786-12.752 7.057 0 12.786 5.714 12.786 12.752v12.265h-.014zM36.325 37.067h-6.773V12.752C29.552 5.714 35.282 0 42.34 0v6.754c-3.319 0-6.014 2.688-6.014 5.998v.797c1.788-.96 3.833-1.5 6.014-1.5v6.755c-3.319 0-6.014 2.688-6.014 5.998v12.265zM68.425 3.715h-6.772V36.73h6.772V3.715zM58.39 36.892c-7.044 0-12.787-5.714-12.787-12.752V4.215h6.773V24.14c0 3.31 2.695 5.997 6.014 5.997v6.755z" fill="#fff"/>
    <path d="M58.39 11.401H50.18v6.754h8.208v-6.754zM90.652 37.068H83.88V24.802c0-3.715-1.748-5.998-2.696-5.998-.948 0-2.695 2.27-2.695 5.998v12.266h-6.772V24.802c0-7.146 4.158-12.752 9.467-12.752 5.31 0 9.468 5.606 9.468 12.752v12.266z" fill="#fff"/>
    <path d="M102.815 36.892h-6.772V24.626c0-3.715-1.747-5.998-2.695-5.998-.948 0-2.696 2.27-2.696 5.998v12.266H83.88V24.626c0-7.146 4.158-12.752 9.468-12.752s9.467 5.592 9.467 12.752v12.266zM117.741 37.702a12.735 12.735 0 0 1-8.709-3.417c-2.492-2.324-3.942-5.471-4.063-8.875a12.605 12.605 0 0 1 3.426-9.132 12.745 12.745 0 0 1 8.899-4.053 12.739 12.739 0 0 1 9.156 3.418c2.492 2.323 3.941 5.47 4.05 8.875v3.823h-17.743c.243.365.541.702.866 1 1.179 1.094 2.682 1.634 4.308 1.607a6.015 6.015 0 0 0 4.551-2.337l5.363 4.12a12.761 12.761 0 0 1-9.698 4.971h-.46.054zm-4.957-16.115h9.928a6.15 6.15 0 0 0-.867-1.014c-1.178-1.094-2.695-1.675-4.307-1.607a5.969 5.969 0 0 0-4.185 1.905 5.62 5.62 0 0 0-.569.716z" fill="#fff"/>
</svg>
