<svg width="281" height="56" viewBox="0 0 281 56" fill="none" xmlns="http://www.w3.org/2000/svg">
    <rect x=".5" width="280" height="56" rx="4" fill="#0F5FFC"/>
    <g clip-path="url(#0nh5aq0i7a)">
        <mask id="x17q7wlb2b" style="mask-type:alpha" maskUnits="userSpaceOnUse" x="76" y="21" width="26" height="14">
            <path fill-rule="evenodd" clip-rule="evenodd" d="M76 21.5h26v13H76v-13z" fill="#fff"/>
        </mask>
        <g mask="url(#x17q7wlb2b)">
            <path fill-rule="evenodd" clip-rule="evenodd" d="m101.369 24.55-.033-.155c-.341-1.625-1.736-2.624-3.663-2.624H80.341c-1.927 0-3.336 1.01-3.677 2.636l-.032.155a6.315 6.315 0 0 0-.09 1.138v4.55c.002.566.06.97.06.974l.003.017c.227 1.87 1.623 2.988 3.736 2.988H92.87c.11 0 .198-.088.198-.197V26.662a.198.198 0 0 0-.198-.197h-.724a.197.197 0 0 0-.198.197v6.458H80.62c-1.876 0-2.953-1.139-2.954-2.83l.001-4.6c0-1.707 1.076-2.807 2.953-2.807h16.774c1.877 0 2.941 1.089 2.941 2.795l.001 4.6c-.002 1.692-1.067 2.837-2.943 2.837l-.384.005c-.159 0-.297.002-.457.003h-.216a.197.197 0 0 0-.198.196v.71c0 .11.088.197.198.197h.503l.203-.003h.631c2.112 0 3.495-1.123 3.722-2.994l.003-.017c0-.004.058-.408.06-.974v-4.55a6.317 6.317 0 0 0-.089-1.137z" fill="#fff"/>
        </g>
        <path d="M114.497 25.594h1.199c-.048-1.508-1.431-2.63-3.355-2.63-1.914 0-3.403 1.102-3.403 2.775 0 1.344.967 2.137 2.523 2.581l1.209.339c1.044.29 1.963.657 1.963 1.624 0 1.073-1.025 1.78-2.389 1.78-1.179 0-2.214-.523-2.31-1.635h-1.267c.116 1.644 1.441 2.746 3.577 2.746 2.292 0 3.587-1.257 3.587-2.872 0-1.846-1.74-2.455-2.794-2.726l-.996-.27c-.744-.194-1.904-.58-1.904-1.625 0-.938.86-1.624 2.165-1.624 1.19 0 2.089.56 2.195 1.537zM117.368 33h1.179v-7.425h-1.179V33zm-.232-9.436c0 .435.377.783.831.783.445 0 .822-.348.822-.784 0-.434-.377-.783-.822-.783-.454 0-.831.348-.831.784zm4.386 4.979c0-1.286.793-2.011 1.875-2.011 1.054 0 1.683.686 1.683 1.837V33h1.179v-4.718c0-1.886-1.005-2.804-2.514-2.804-1.121 0-1.817.503-2.165 1.266h-.097v-1.17h-1.141V33h1.18v-4.457zm9.556 7.396c1.808 0 3.219-.822 3.219-2.736v-7.628h-1.141v1.18h-.106c-.261-.397-.725-1.277-2.166-1.277-1.866 0-3.171 1.421-3.171 3.713 0 2.33 1.353 3.693 3.152 3.693 1.44 0 1.914-.841 2.166-1.257h.096v1.508c0 1.228-.783 1.78-2.049 1.78-1.054 0-1.76-.378-1.915-1.142h-1.237c.135 1.383 1.353 2.166 3.152 2.166zm-2.176-6.71c0-1.498.706-2.697 2.137-2.697 1.373 0 2.108 1.102 2.108 2.697 0 1.634-.755 2.61-2.108 2.61-1.412 0-2.137-1.072-2.137-2.61zM139.534 33h1.179v-7.425h-1.179V33zm-.232-9.436c0 .435.377.783.831.783.445 0 .822-.348.822-.784 0-.434-.377-.783-.822-.783-.454 0-.831.348-.831.784zm4.386 4.979c0-1.286.793-2.011 1.876-2.011 1.053 0 1.682.686 1.682 1.837V33h1.179v-4.718c0-1.886-1.005-2.804-2.513-2.804-1.122 0-1.818.503-2.166 1.266h-.097v-1.17h-1.141V33h1.18v-4.457zM155.339 33h1.17l1.605-5.666h.116L159.845 33h1.16l2.253-7.425h-1.238l-1.586 5.636h-.077l-1.547-5.636h-1.257l-1.566 5.656h-.077l-1.586-5.656h-1.238L155.339 33zm9.136 0h1.18v-7.425h-1.18V33zm-.232-9.436c0 .435.377.783.832.783.444 0 .821-.348.821-.784 0-.434-.377-.783-.821-.783-.455 0-.832.348-.832.784zm6.455 2.01h-1.566v-1.778h-1.179v1.779h-1.122v.986h1.122v4.612c0 1.305 1.044 1.924 2.03 1.924.348 0 .638-.03.822-.058v-1.093c-.174.01-.484.03-.696.03-.503 0-.977-.156-.977-1.113v-4.302h1.566v-.986zm2.765 2.969c0-1.286.822-2.011 1.934-2.011 1.064 0 1.702.667 1.702 1.837V33h1.179v-4.718c0-1.905-1.015-2.804-2.533-2.804-1.17 0-1.837.493-2.185 1.266h-.097V23.1h-1.179V33h1.179v-4.457zM183.679 33h1.228v-3.19l1.237-1.393L189.548 33h1.498l-4.138-5.434 4.138-4.467h-1.605l-4.409 4.893h-.125v-4.893h-1.228V33zm9.646-9.9h-1.18V33h1.18v-9.9zm1.795 9.9h1.179v-7.425h-1.179V33zm-.232-9.436c0 .435.377.783.831.783.445 0 .822-.348.822-.784 0-.434-.377-.783-.822-.783-.454 0-.831.348-.831.784zm3.206 12.22h1.18V31.86h.097c.251.416.744 1.296 2.165 1.296 1.847 0 3.143-1.49 3.143-3.848 0-2.35-1.296-3.83-3.162-3.83-1.441 0-1.895.88-2.146 1.277h-.136v-1.18h-1.141v10.21zm1.161-6.497c0-1.653.725-2.755 2.107-2.755 1.431 0 2.137 1.199 2.137 2.755 0 1.576-.725 2.814-2.137 2.814-1.363 0-2.107-1.15-2.107-2.814z" fill="#fff"/>
    </g>
    <defs>
        <clipPath id="0nh5aq0i7a">
            <path fill="#fff" transform="translate(76 18)" d="M0 0h130v20H0z"/>
        </clipPath>
    </defs>
</svg>
